Coordinates
version=1
nRows=6
nColumns=107
inDegrees=yes

Units are S.I. units (second, meters, Newtons, ...)
If the header above contains a line with 'inDegrees', this indicates whether rotational values are in degrees (yes) or radians (no).

endheader
time	sternoclavicular_r2	sternoclavicular_r3	unrotscap_r3	unrotscap_r2	acromioclavicular_r2	acromioclavicular_r3	acromioclavicular_r1	unrothum_r1	unrothum_r3	unrothum_r2	elv_angle	shoulder_elv	shoulder1_r2	shoulder_rot	elbow_flexion	pro_sup	deviation	flexion	proximal_distal_r1	proximal_distal_r3	cmc_flexion	cmc_abduction	mp_flexion	ip_flexion	mcp2_flexion	mcp2_abduction	pm2_flexion	md2_flexion	mcp3_flexion	mcp3_abduction	pm3_flexion	md3_flexion	mcp4_flexion	mcp4_abduction	pm4_flexion	md4_flexion	mcp5_flexion	mcp5_abduction	pm5_flexion	md5_flexion	bicpt_tx	bicpt_ty	bicpt_tz	bicpt2_tx	bicpt2_ty	bicpt2_tz	ptpt_tx	ptpt_ty	ptpt_tz	FCUpt_tx	FCUpt_ty	FCUpt_tz	EDCpt_tx	EDCpt_ty	EDCpt_tz	APLpt_tx	APLpt_ty	APLpt_tz	FPLpt_tx	FPLpt_ty	FPLpt_tz	FPLpt2_tx	FPLpt2_ty	FPLpt2_tz	PEC1pt2_tx	PEC1pt2_ty	PEC1pt2_tz	PEC1pt3_tx	PEC1pt3_ty	PEC1pt3_tz	PEC2pt2_tx	PEC2pt2_ty	PEC2pt2_tz	PEC2pt3_tx	PEC2pt3_ty	PEC2pt3_tz	PEC3pt2_tx	PEC3pt2_ty	PEC3pt2_tz	PEC3pt3_tx	PEC3pt3_ty	PEC3pt3_tz	DELT2pt2a_tx	DELT2pt2a_ty	DELT2pt2a_tz	DELT2pt2_tx	DELT2pt2_ty	DELT2pt2_tz	LAT1pt2_tx	LAT1pt2_ty	LAT1pt2_tz	LAT1pt3_tx	LAT1pt3_ty	LAT1pt3_tz	LAT2pt2_tx	LAT2pt2_ty	LAT2pt2_tz	LAT2pt3_tx	LAT2pt3_ty	LAT2pt3_tz	LAT3pt2_tx	LAT3pt2_ty	LAT3pt2_tz	LAT3pt3_tx	LAT3pt3_ty	LAT3pt3_tz
      0.43333333	     -0.32454067	      0.13746011	     -0.13746011	      0.32454067	     -0.06571288	      0.53106841	      0.23871159	     -0.23871159	     -0.53106841	      0.06571288	     97.95951088	     76.83788752	     -1.70971600	    -20.07408428	     29.06217520	     37.96186007	      0.18717752	     -1.06061389	      0.22534955	     -0.53030695	     11.16145036	      0.66802007	    -30.64057424	    -31.87407831	     65.65480087	     13.77390015	     84.99140140	     93.19409372	     77.12773318	      5.48328845	     83.53871992	     61.30925101	     85.19652961	    -12.37683230	     87.92984452	     45.09946090	     97.62524751	    -14.17432455	     73.98380788	      5.71948704	      0.00086129	     -0.03093097	     -0.00483653	      0.01656585	     -0.01809488	     -0.00768469	      0.00474505	     -0.06671373	     -0.00310803	      0.00757568	     -0.18353687	     -0.00037039	     -0.00455541	      0.00129797	      0.00015993	      0.00014311	      0.00005724	      0.00028621	      0.00018317	      0.00054952	      0.00030911	      0.00003107	     -0.00020983	     -0.00025179	      0.00251858	      0.00883636	      0.00614704	     -0.00823874	      0.01989249	     -0.01886799	      0.00251858	      0.00883636	      0.00614704	      0.00055494	      0.01844111	     -0.00969012	      0.00397325	      0.00491379	      0.01602919	      0.00000000	      0.00789686	      0.00000000	     -0.00721423	     -0.03333913	     -0.00651197	      0.01381901	     -0.00043421	     -0.00332390	     -0.00089644	      0.01502609	     -0.00614704	      0.00247589	      0.02168538	     -0.01792886	     -0.00601897	      0.01301976	     -0.00550672	     -0.01255020	      0.02749091	     -0.03077787	     -0.02356364	      0.01455652	     -0.00738498	     -0.01562372	      0.03175969	     -0.03846166
      0.46666667	     -0.32270275	      0.13668166	     -0.13668166	      0.32270275	     -0.06534074	      0.52806090	      0.23735974	     -0.23735974	     -0.52806090	      0.06534074	     98.31565072	     76.40274502	     -1.71593181	    -22.16379493	     29.20336154	     39.95244741	      0.17669123	     -1.05976855	      0.21424145	     -0.52988428	     11.24706183	      0.59850096	    -30.61726332	    -32.75442660	     65.86160558	     13.78760653	     85.08481946	     93.09455600	     77.22490080	      5.52886172	     83.57373892	     61.61212292	     85.20036065	    -12.35559027	     87.97343181	     45.48433473	     97.66543557	    -14.17951165	     74.72756127	      5.70021683	      0.00086596	     -0.03094715	     -0.00483914	      0.01657432	     -0.01813324	     -0.00747511	      0.00459796	     -0.06680883	     -0.00326838	      0.00777545	     -0.18349605	     -0.00038608	     -0.00479428	      0.00137831	      0.00014676	      0.00014374	      0.00005750	      0.00028749	      0.00018399	      0.00055197	      0.00031048	      0.00003094	     -0.00021090	     -0.00025308	      0.00250431	      0.00878632	      0.00611222	     -0.00819208	      0.01977984	     -0.01876113	      0.00250431	      0.00878632	      0.00611222	      0.00055180	      0.01833667	     -0.00963524	      0.00395685	      0.00488596	      0.01598939	      0.00000000	      0.00780704	      0.00000000	     -0.00717337	     -0.03315033	     -0.00643741	      0.01499357	     -0.00049931	     -0.00408569	     -0.00089137	      0.01494099	     -0.00611222	      0.00246187	      0.02156257	     -0.01782732	     -0.00598489	      0.01294603	     -0.00547553	     -0.01247913	      0.02733523	     -0.03060357	     -0.02343019	      0.01447409	     -0.00734316	     -0.01553524	      0.03157983	     -0.03824385
      0.50000000	     -0.32240797	      0.13655680	     -0.13655680	      0.32240797	     -0.06528106	      0.52757853	      0.23714292	     -0.23714292	     -0.52757853	      0.06528106	     98.21811740	     76.33295262	     -1.71422953	    -22.36856299	     29.56823497	     40.66707747	      0.18636846	     -1.02163356	      0.22449902	     -0.51081678	     10.55580720	      0.51721597	    -29.59307494	    -32.51533259	     65.95518403	     13.80046615	     85.01351232	     94.75013447	     76.67861794	      5.63425745	     84.33313854	     61.02141212	     85.05855218	    -12.30438436	     88.14812207	     45.42621181	     97.18855165	    -14.18158063	     75.07823201	      5.72645750	      0.00087803	     -0.03098897	     -0.00484587	      0.01657515	     -0.01823236	     -0.00739851	      0.00454516	     -0.06684298	     -0.00332595	      0.00784747	     -0.18348112	     -0.00039099	     -0.00488004	      0.00140745	      0.00014151	      0.00017122	      0.00006849	      0.00034244	      0.00021916	      0.00065748	      0.00036983	      0.00003196	     -0.00020203	     -0.00024243	      0.00250203	      0.00877830	      0.00610664	     -0.00818460	      0.01976177	     -0.01874400	      0.00250203	      0.00877830	      0.00610664	      0.00055129	      0.01831992	     -0.00962644	      0.00395422	      0.00488150	      0.01598297	      0.00000000	      0.00779268	      0.00000000	     -0.00716682	     -0.03312005	     -0.00642549	      0.01510552	     -0.00050577	     -0.00416392	     -0.00089055	      0.01492735	     -0.00610664	      0.00245962	      0.02154287	     -0.01781104	     -0.00597942	      0.01293421	     -0.00547053	     -0.01246773	      0.02731026	     -0.03057561	     -0.02340879	      0.01446087	     -0.00733645	     -0.01552105	      0.03155098	     -0.03820892
      0.53333333	     -0.32247672	      0.13658592	     -0.13658592	      0.32247672	     -0.06529498	      0.52769102	      0.23719348	     -0.23719348	     -0.52769102	      0.06529498	     98.22053272	     76.34922889	     -1.71427169	    -22.36850398	     29.57319624	     40.66868312	      0.18636724	     -1.02164956	      0.22449757	     -0.51082478	     10.55548214	      0.51777922	    -29.59369819	    -32.51556363	     65.95552532	     13.80075763	     85.01339975	     94.74979588	     76.67976880	      5.63457087	     84.33303766	     61.02160725	     85.05925982	    -12.30442366	     88.14986237	     45.42654451	     97.18858400	    -14.18147387	     75.07952067	      5.72658039	      0.00087819	     -0.03098954	     -0.00484597	      0.01657514	     -0.01823370	     -0.00739833	      0.00454504	     -0.06684305	     -0.00332608	      0.00784763	     -0.18348109	     -0.00039100	     -0.00488023	      0.00140751	      0.00014150	      0.00017119	      0.00006847	      0.00034237	      0.00021912	      0.00065735	      0.00036976	      0.00003196	     -0.00020199	     -0.00024239	      0.00250256	      0.00878017	      0.00610794	     -0.00818634	      0.01976598	     -0.01874799	      0.00250256	      0.00878017	      0.00610794	      0.00055141	      0.01832383	     -0.00962849	      0.00395483	      0.00488254	      0.01598447	      0.00000000	      0.00779603	      0.00000000	     -0.00716835	     -0.03312711	     -0.00642827	      0.01510549	     -0.00050577	     -0.00416390	     -0.00089074	      0.01493053	     -0.00610794	      0.00246014	      0.02154747	     -0.01781484	     -0.00598069	      0.01293696	     -0.00547170	     -0.01247038	      0.02731608	     -0.03058213	     -0.02341378	      0.01446395	     -0.00733802	     -0.01552436	      0.03155771	     -0.03821706
      0.56666667	     -0.32224526	      0.13648788	     -0.13648788	      0.32224526	     -0.06524811	      0.52731228	      0.23702324	     -0.23702324	     -0.52731228	      0.06524811	     98.27004740	     76.29443061	     -1.71513588	    -22.66643533	     29.61700651	     41.52170845	      0.18949760	     -1.01854971	      0.22778295	     -0.50927486	     10.30279417	      0.58735831	    -29.25721115	    -32.33541041	     65.81844553	     13.83431503	     85.28910674	     95.86398397	     76.64820925	      5.80945920	     84.72151979	     62.29604038	     84.95968879	    -12.32629526	     89.59843907	     45.88405944	     96.64495120	    -14.16372838	     76.70192430	      5.74257085	      0.00087964	     -0.03099456	     -0.00484678	      0.01657464	     -0.01824561	     -0.00730598	      0.00448201	     -0.06688381	     -0.00339480	      0.00793379	     -0.18346308	     -0.00039636	     -0.00498259	      0.00144250	      0.00013488	      0.00017332	      0.00006933	      0.00034665	      0.00022185	      0.00066556	      0.00037438	      0.00003230	     -0.00019862	     -0.00023835	      0.00250076	      0.00877387	      0.00610356	     -0.00818047	      0.01975180	     -0.01873454	      0.00250076	      0.00877387	      0.00610356	      0.00055102	      0.01831068	     -0.00962158	      0.00395276	      0.00487904	      0.01597942	      0.00000000	      0.00778476	      0.00000000	     -0.00716321	     -0.03310333	     -0.00641892	      0.01526738	     -0.00051521	     -0.00427882	     -0.00089010	      0.01491981	     -0.00610356	      0.00245838	      0.02153200	     -0.01780205	     -0.00597640	      0.01292768	     -0.00546777	     -0.01246143	      0.02729647	     -0.03056018	     -0.02339698	      0.01445357	     -0.00733275	     -0.01551321	      0.03153506	     -0.03818963
      0.60000000	     -0.32261436	      0.13664422	     -0.13664422	      0.32261436	     -0.06532285	      0.52791626	      0.23729473	     -0.23729473	     -0.52791626	      0.06532285	     98.35456701	     76.38181820	     -1.71661103	    -22.61837482	     29.44238123	     41.53484858	      0.18985588	     -1.01973518	      0.22815790	     -0.50986759	     10.44166300	      0.65552983	    -29.19594537	    -32.30555707	     65.74333470	     13.83190084	     85.25828094	     95.85083597	     76.55995384	      5.81243400	     84.66253305	     62.30244631	     84.87460798	    -12.34004507	     89.57128203	     45.87890184	     96.55182934	    -14.15196024	     76.69843813	      5.73738509	      0.00087386	     -0.03097455	     -0.00484355	      0.01657458	     -0.01819817	     -0.00730453	      0.00448104	     -0.06688444	     -0.00339585	      0.00793513	     -0.18346280	     -0.00039643	     -0.00498417	      0.00144304	      0.00013476	      0.00017250	      0.00006900	      0.00034500	      0.00022080	      0.00066240	      0.00037260	      0.00003211	     -0.00020047	     -0.00024057	      0.00250363	      0.00878392	      0.00611055	     -0.00818984	      0.01977442	     -0.01875600	      0.00250363	      0.00878392	      0.00611055	      0.00055165	      0.01833165	     -0.00963260	      0.00395606	      0.00488462	      0.01598747	      0.00000000	      0.00780273	      0.00000000	     -0.00717141	     -0.03314125	     -0.00643384	      0.01524135	     -0.00051369	     -0.00426019	     -0.00089112	      0.01493690	     -0.00611055	      0.00246119	      0.02155666	     -0.01782244	     -0.00598325	      0.01294249	     -0.00547403	     -0.01247571	      0.02732774	     -0.03059519	     -0.02342378	      0.01447012	     -0.00734115	     -0.01553098	      0.03157118	     -0.03823338
